<?xml version="1.0" standalone="no"?><!DOCTYPE svg PUBLIC "-//W3C//DTD SVG 1.1//EN" "http://www.w3.org/Graphics/SVG/1.1/DTD/svg11.dtd"><svg t="1688043892694" class="icon" viewBox="0 0 1024 1024" version="1.1" xmlns="http://www.w3.org/2000/svg" p-id="19145" width="32" height="32" xmlns:xlink="http://www.w3.org/1999/xlink"><path d="M173.590625 566.624375c-19.828125 0-35.9025-16.78875-35.9025-37.5 0-20.503125 15.75375-37.1634375 35.3090625-37.494375l0.5934375-0.005625h645.3815625c19.828125 0 35.9034375 16.7896875 35.9034375 37.5 0 20.503125-15.7546875 37.164375-35.31 37.4953125l-0.5934375 0.0046875H173.590625z" fill="#fba33e" p-id="19146"></path><path d="M591.4034375 838.5978125c-14.64375 14.6446875-38.38875 14.6446875-53.0325 0-14.4984375-14.4975-14.64375-37.914375-0.435-52.5909375l0.435-0.4415625L822.096875 501.8375c14.6446875-14.64375 38.38875-14.64375 53.0334375 0 14.4984375 14.4984375 14.64375 37.914375 0.435 52.5909375l-0.435 0.4425L591.4034375 838.596875z" fill="#fba33e" p-id="19147"></path><path d="M539.500625 271.9390625c-14.6446875-14.6446875-14.6446875-38.38875 0-53.0334375 14.4975-14.4975 37.914375-14.64375 52.5909375-0.435l0.4415625 0.435 283.3425 283.3425c14.64375 14.64375 14.64375 38.3878125 0 53.0325-14.4984375 14.4984375-37.914375 14.64375-52.5909375 0.435l-0.4425-0.435-283.3415625-283.3415625z" fill="#fba33e" p-id="19148"></path></svg>