<?xml version="1.0" standalone="no"?><!DOCTYPE svg PUBLIC "-//W3C//DTD SVG 1.1//EN" "http://www.w3.org/Graphics/SVG/1.1/DTD/svg11.dtd"><svg t="1688526752961" class="icon" viewBox="0 0 1024 1024" version="1.1" xmlns="http://www.w3.org/2000/svg" p-id="3837" width="20" height="20" xmlns:xlink="http://www.w3.org/1999/xlink"><path d="M512 47.543c-257.097 0-466.286 213.577-466.286 476.16 0 262.436 209.189 475.94 466.286 475.94s466.286-213.504 466.286-475.94c0-262.583-209.189-476.16-466.286-476.16z m0 872.74c-214.309 0-388.608-177.956-388.608-396.653S297.765 126.903 512 126.903c214.309 0 388.608 177.956 388.608 396.727 0 218.697-174.373 396.653-388.608 396.653z m180.663-279.99l-161.28-95.16v-259.51c0-21.943-17.408-39.717-38.912-39.717a39.278 39.278 0 0 0-38.766 39.717V563.2c0 14.702 17.847 27.063 29.477 33.865 3.291 4.974 12.141 9.509 17.554 12.58l160.183 99.182c18.651 10.972 38.766 4.462 49.518-14.482 10.678-19.017 0.731-43.154-17.92-54.126z" p-id="3838" fill="#999999"></path></svg>