<?xml version="1.0" standalone="no"?><!DOCTYPE svg PUBLIC "-//W3C//DTD SVG 1.1//EN" "http://www.w3.org/Graphics/SVG/1.1/DTD/svg11.dtd"><svg t="1687938906424" class="icon" viewBox="0 0 1024 1024" version="1.1" xmlns="http://www.w3.org/2000/svg" p-id="13518" width="32" height="32" xmlns:xlink="http://www.w3.org/1999/xlink"><path d="M463.509519 919.748638a459.874319 459.874319 0 1 1 459.874319-459.874319 459.874319 459.874319 0 0 1-459.874319 459.874319z m0-827.773774a367.899455 367.899455 0 1 0 367.899455 367.899455A367.899455 367.899455 0 0 0 463.509519 91.974864z" fill="#ffffff" p-id="13519"></path><path d="M974.276596 1023.986817a46.294015 46.294015 0 0 1-32.497785-12.263315l-222.885754-223.805502a45.987432 45.987432 0 0 1 65.302154-64.995571l222.57917 223.805502a45.680849 45.680849 0 0 1 0 64.995571 46.294015 46.294015 0 0 1-32.497785 12.263315z" fill="#ffffff" p-id="13520"></path></svg>