<?xml version="1.0" standalone="no"?><!DOCTYPE svg PUBLIC "-//W3C//DTD SVG 1.1//EN" "http://www.w3.org/Graphics/SVG/1.1/DTD/svg11.dtd"><svg t="1687938137116" class="icon" viewBox="0 0 1024 1024" version="1.1" xmlns="http://www.w3.org/2000/svg" p-id="11320" width="32" height="32" xmlns:xlink="http://www.w3.org/1999/xlink"><path d="M32 512A480 480 0 0 1 511.872 32H512a480 480 0 0 1 0.256 960h-0.448A480 480 0 0 1 32 512z m65.216 32a414.272 414.272 0 0 0 101.12 241.28 553.792 553.792 0 0 1 136.32-79.68A621.824 621.824 0 0 1 310.4 544H97.216z m215.424-64a687.36 687.36 0 0 1 32.768-157.44A548.352 548.352 0 0 1 198.4 238.72a414.272 414.272 0 0 0-101.12 241.28h215.424z m61.824 64a557.44 557.44 0 0 0 21.12 141.888 464.832 464.832 0 0 1 182.144-8.704c13.952 2.048 27.584 4.736 40.96 7.872 16.64-48.192 25.856-95.424 29.312-141.056H374.464z m274.752-64a581.12 581.12 0 0 0-5.696-61.76 615.872 615.872 0 0 0-17.472-81.088 499.776 499.776 0 0 1-48.32 9.6 465.28 465.28 0 0 1-170.88-5.952A623.872 623.872 0 0 0 376.832 480h272.32z m62.976 64a624.832 624.832 0 0 1-32.192 159.488 542.208 542.208 0 0 1 146.112 81.28A414.336 414.336 0 0 0 926.72 544h-214.592z m214.592-64a414.272 414.272 0 0 0-100.672-240.768 541.888 541.888 0 0 1-139.008 78.592c8.384 29.12 15.168 59.584 19.776 91.136 3.392 23.168 5.568 46.848 6.4 71.04h213.504zM430.528 280.384c48.384 9.6 94.72 9.536 137.856 3.136 12.544-1.92 24.896-4.288 36.928-7.168a663.424 663.424 0 0 0-80.64-146.496 634.368 634.368 0 0 0-94.08 150.528z m-62.144-17.6c28.8-66.176 64.64-122.24 99.2-164.48A414.144 414.144 0 0 0 244.48 193.536a480.064 480.064 0 0 0 123.968 69.312z m-123.968 567.68a414.336 414.336 0 0 0 197.056 91.52 728.512 728.512 0 0 1-86.144-155.712 487.04 487.04 0 0 0-110.912 64.256zM568.32 740.48a400.64 400.64 0 0 0-151.936 6.208c19.584 48.128 46.72 97.152 83.072 146.368a711.232 711.232 0 0 0 94.72-147.904 426.944 426.944 0 0 0-25.856-4.672z m-12.992 185.28a414.208 414.208 0 0 0 224.64-95.68 480.896 480.896 0 0 0-123.584-67.072 764.416 764.416 0 0 1-101.056 162.752z m224.64-731.84a414.336 414.336 0 0 0-196.48-91.776c30.144 42.752 59.712 95.232 82.944 155.008a480.128 480.128 0 0 0 113.6-63.232z" fill="#ffffff" p-id="11321"></path></svg>